# Blender v2.75 (sub 0) OBJ File: ''
# www.blender.org
mtllib Torus.mtl
o Torus
v 1.250000 0.000000 0.000000
v 1.216506 -0.000000 0.125000
v 1.125000 -0.000000 0.216506
v 1.000000 -0.000000 0.250000
v 0.875000 -0.000000 0.216506
v 0.783494 -0.000000 0.125000
v 0.750000 -0.000000 0.000000
v 0.783494 0.000000 -0.125000
v 0.875000 0.000000 -0.216506
v 1.000000 0.000000 -0.250000
v 1.125000 0.000000 -0.216506
v 1.216506 0.000000 -0.125000
v 1.154850 0.478354 0.000000
v 1.123905 0.465537 0.125000
v 1.039365 0.430519 0.216506
v 0.923880 0.382683 0.250000
v 0.808395 0.334848 0.216506
v 0.723854 0.299830 0.125000
v 0.692910 0.287013 0.000000
v 0.723854 0.299830 -0.125000
v 0.808395 0.334848 -0.216506
v 0.923880 0.382683 -0.250000
v 1.039365 0.430519 -0.216506
v 1.123905 0.465537 -0.125000
v 0.883883 0.883884 0.000000
v 0.860200 0.860200 0.125000
v 0.795495 0.795495 0.216506
v 0.707107 0.707107 0.250000
v 0.618718 0.618718 0.216506
v 0.554014 0.554014 0.125000
v 0.530330 0.530330 0.000000
v 0.554014 0.554014 -0.125000
v 0.618718 0.618718 -0.216506
v 0.707107 0.707107 -0.250000
v 0.795495 0.795495 -0.216506
v 0.860200 0.860200 -0.125000
v 0.478355 1.154849 0.000000
v 0.465537 1.123905 0.125000
v 0.430519 1.039364 0.216506
v 0.382684 0.923879 0.250000
v 0.334848 0.808394 0.216506
v 0.299830 0.723854 0.125000
v 0.287013 0.692910 0.000000
v 0.299830 0.723854 -0.125000
v 0.334848 0.808394 -0.216506
v 0.382684 0.923879 -0.250000
v 0.430519 1.039364 -0.216506
v 0.465537 1.123905 -0.125000
v 0.000000 1.250000 0.000000
v 0.000000 1.216506 0.125000
v 0.000000 1.125000 0.216506
v 0.000000 1.000000 0.250000
v 0.000000 0.875000 0.216506
v 0.000000 0.783494 0.125000
v 0.000000 0.750000 0.000000
v 0.000000 0.783494 -0.125000
v 0.000000 0.875000 -0.216506
v 0.000000 1.000000 -0.250000
v 0.000000 1.125000 -0.216506
v 0.000000 1.216506 -0.125000
v -0.478354 1.154849 0.000000
v -0.465537 1.123905 0.125000
v -0.430519 1.039364 0.216506
v -0.382684 0.923880 0.250000
v -0.334848 0.808395 0.216506
v -0.299830 0.723854 0.125000
v -0.287013 0.692910 0.000000
v -0.299830 0.723854 -0.125000
v -0.334848 0.808395 -0.216506
v -0.382684 0.923880 -0.250000
v -0.430519 1.039364 -0.216506
v -0.465537 1.123905 -0.125000
v -0.883884 0.883883 0.000000
v -0.860200 0.860200 0.125000
v -0.795495 0.795495 0.216506
v -0.707107 0.707107 0.250000
v -0.618719 0.618718 0.216506
v -0.554014 0.554013 0.125000
v -0.530330 0.530330 0.000000
v -0.554014 0.554013 -0.125000
v -0.618719 0.618718 -0.216506
v -0.707107 0.707107 -0.250000
v -0.795495 0.795495 -0.216506
v -0.860200 0.860200 -0.125000
v -1.154849 0.478354 0.000000
v -1.123905 0.465537 0.125000
v -1.039364 0.430519 0.216506
v -0.923879 0.382683 0.250000
v -0.808394 0.334848 0.216506
v -0.723854 0.299830 0.125000
v -0.692910 0.287013 0.000000
v -0.723854 0.299830 -0.125000
v -0.808394 0.334848 -0.216506
v -0.923879 0.382683 -0.250000
v -1.039364 0.430519 -0.216506
v -1.123905 0.465537 -0.125000
v -1.250000 0.000000 0.000000
v -1.216506 0.000000 0.125000
v -1.125000 0.000000 0.216506
v -1.000000 0.000000 0.250000
v -0.875000 0.000000 0.216506
v -0.783494 0.000000 0.125000
v -0.750000 0.000000 0.000000
v -0.783494 0.000000 -0.125000
v -0.875000 0.000000 -0.216506
v -1.000000 0.000000 -0.250000
v -1.125000 0.000000 -0.216506
v -1.216506 0.000000 -0.125000
v -1.154850 -0.478354 -0.000000
v -1.123906 -0.465536 0.125000
v -1.039365 -0.430518 0.216506
v -0.923880 -0.382683 0.250000
v -0.808395 -0.334848 0.216506
v -0.723854 -0.299830 0.125000
v -0.692910 -0.287012 -0.000000
v -0.723854 -0.299830 -0.125000
v -0.808395 -0.334848 -0.216506
v -0.923880 -0.382683 -0.250000
v -1.039365 -0.430518 -0.216506
v -1.123906 -0.465536 -0.125000
v -0.883884 -0.883883 -0.000000
v -0.860200 -0.860200 0.125000
v -0.795495 -0.795495 0.216506
v -0.707107 -0.707107 0.250000
v -0.618719 -0.618718 0.216506
v -0.554014 -0.554013 0.125000
v -0.530330 -0.530330 -0.000000
v -0.554014 -0.554013 -0.125000
v -0.618719 -0.618718 -0.216506
v -0.707107 -0.707107 -0.250000
v -0.795495 -0.795495 -0.216506
v -0.860200 -0.860200 -0.125000
v -0.478354 -1.154849 -0.000000
v -0.465537 -1.123905 0.125000
v -0.430519 -1.039364 0.216506
v -0.382684 -0.923880 0.250000
v -0.334848 -0.808395 0.216506
v -0.299830 -0.723854 0.125000
v -0.287013 -0.692910 -0.000000
v -0.299830 -0.723854 -0.125000
v -0.334848 -0.808395 -0.216506
v -0.382684 -0.923880 -0.250000
v -0.430519 -1.039364 -0.216506
v -0.465537 -1.123905 -0.125000
v 0.000000 -1.250000 -0.000000
v 0.000000 -1.216506 0.125000
v 0.000000 -1.125000 0.216506
v 0.000000 -1.000000 0.250000
v 0.000000 -0.875000 0.216506
v 0.000000 -0.783494 0.125000
v 0.000000 -0.750000 -0.000000
v 0.000000 -0.783494 -0.125000
v 0.000000 -0.875000 -0.216506
v 0.000000 -1.000000 -0.250000
v 0.000000 -1.125000 -0.216506
v 0.000000 -1.216506 -0.125000
v 0.478355 -1.154849 -0.000000
v 0.465537 -1.123905 0.125000
v 0.430519 -1.039364 0.216506
v 0.382684 -0.923879 0.250000
v 0.334848 -0.808394 0.216506
v 0.299830 -0.723854 0.125000
v 0.287013 -0.692910 -0.000000
v 0.299830 -0.723854 -0.125000
v 0.334848 -0.808394 -0.216506
v 0.382684 -0.923879 -0.250000
v 0.430519 -1.039364 -0.216506
v 0.465537 -1.123905 -0.125000
v 0.883883 -0.883884 -0.000000
v 0.860199 -0.860200 0.125000
v 0.795495 -0.795496 0.216506
v 0.707106 -0.707107 0.250000
v 0.618718 -0.618719 0.216506
v 0.554013 -0.554014 0.125000
v 0.530330 -0.530330 -0.000000
v 0.554013 -0.554014 -0.125000
v 0.618718 -0.618719 -0.216506
v 0.707106 -0.707107 -0.250000
v 0.795495 -0.795496 -0.216506
v 0.860199 -0.860200 -0.125000
v 1.154849 -0.478355 -0.000000
v 1.123905 -0.465537 0.125000
v 1.039364 -0.430519 0.216506
v 0.923879 -0.382684 0.250000
v 0.808394 -0.334848 0.216506
v 0.723854 -0.299830 0.125000
v 0.692909 -0.287013 -0.000000
v 0.723854 -0.299830 -0.125000
v 0.808394 -0.334848 -0.216506
v 0.923879 -0.382684 -0.250000
v 1.039364 -0.430519 -0.216506
v 1.123905 -0.465537 -0.125000
vn 0.948600 0.188700 0.254200
vn 0.700200 0.139300 0.700200
vn 0.258500 0.051400 0.964600
vn -0.258500 -0.051400 0.964600
vn -0.700200 -0.139300 0.700200
vn -0.948600 -0.188700 0.254200
vn -0.948600 -0.188700 -0.254200
vn -0.700200 -0.139300 -0.700200
vn -0.258500 -0.051400 -0.964600
vn 0.258500 0.051400 -0.964600
vn 0.700200 0.139300 -0.700200
vn 0.948600 0.188700 -0.254200
vn 0.804200 0.537300 0.254200
vn 0.593600 0.396600 0.700200
vn 0.219100 0.146400 0.964600
vn -0.219100 -0.146400 0.964600
vn -0.593600 -0.396600 0.700200
vn -0.804200 -0.537300 0.254200
vn -0.804200 -0.537300 -0.254200
vn -0.593600 -0.396600 -0.700200
vn -0.219100 -0.146400 -0.964600
vn 0.219100 0.146400 -0.964600
vn 0.593600 0.396600 -0.700200
vn 0.804200 0.537300 -0.254200
vn 0.537300 0.804200 0.254200
vn 0.396600 0.593600 0.700200
vn 0.146400 0.219100 0.964600
vn -0.146400 -0.219100 0.964600
vn -0.396600 -0.593600 0.700200
vn -0.537300 -0.804200 0.254200
vn -0.537300 -0.804200 -0.254200
vn -0.396600 -0.593600 -0.700200
vn -0.146400 -0.219100 -0.964600
vn 0.146400 0.219100 -0.964600
vn 0.396600 0.593600 -0.700200
vn 0.537300 0.804200 -0.254200
vn 0.188700 0.948600 0.254200
vn 0.139300 0.700200 0.700200
vn 0.051400 0.258500 0.964600
vn -0.051400 -0.258500 0.964600
vn -0.139300 -0.700200 0.700200
vn -0.188700 -0.948600 0.254200
vn -0.188700 -0.948600 -0.254200
vn -0.139300 -0.700200 -0.700200
vn -0.051400 -0.258500 -0.964600
vn 0.051400 0.258500 -0.964600
vn 0.139300 0.700200 -0.700200
vn 0.188700 0.948600 -0.254200
vn -0.188700 0.948600 0.254200
vn -0.139300 0.700200 0.700200
vn -0.051400 0.258500 0.964600
vn 0.051400 -0.258500 0.964600
vn 0.139300 -0.700200 0.700200
vn 0.188700 -0.948600 0.254200
vn 0.188700 -0.948600 -0.254200
vn 0.139300 -0.700200 -0.700200
vn 0.051400 -0.258500 -0.964600
vn -0.051400 0.258500 -0.964600
vn -0.139300 0.700200 -0.700200
vn -0.188700 0.948600 -0.254200
vn -0.537300 0.804200 0.254200
vn -0.396600 0.593600 0.700200
vn -0.146400 0.219100 0.964600
vn 0.146400 -0.219100 0.964600
vn 0.396600 -0.593600 0.700200
vn 0.537300 -0.804200 0.254200
vn 0.537300 -0.804200 -0.254200
vn 0.396600 -0.593600 -0.700200
vn 0.146400 -0.219100 -0.964600
vn -0.146400 0.219100 -0.964600
vn -0.396600 0.593600 -0.700200
vn -0.537300 0.804200 -0.254200
vn -0.804200 0.537300 0.254200
vn -0.593600 0.396600 0.700200
vn -0.219100 0.146400 0.964600
vn 0.219100 -0.146400 0.964600
vn 0.593600 -0.396600 0.700200
vn 0.804200 -0.537300 0.254200
vn 0.804200 -0.537300 -0.254200
vn 0.593600 -0.396600 -0.700200
vn 0.219100 -0.146400 -0.964600
vn -0.219100 0.146400 -0.964600
vn -0.593600 0.396600 -0.700200
vn -0.804200 0.537300 -0.254200
vn -0.948600 0.188700 0.254200
vn -0.700200 0.139300 0.700200
vn -0.258500 0.051400 0.964600
vn 0.258500 -0.051400 0.964600
vn 0.700200 -0.139300 0.700200
vn 0.948600 -0.188700 0.254200
vn 0.948600 -0.188700 -0.254200
vn 0.700200 -0.139300 -0.700200
vn 0.258500 -0.051400 -0.964600
vn -0.258500 0.051400 -0.964600
vn -0.700200 0.139300 -0.700200
vn -0.948600 0.188700 -0.254200
usemtl None
s off
f 1//1 13//1 14//1 2//1
f 2//2 14//2 15//2 3//2
f 3//3 15//3 16//3 4//3
f 4//4 16//4 17//4 5//4
f 5//5 17//5 18//5 6//5
f 6//6 18//6 19//6 7//6
f 7//7 19//7 20//7 8//7
f 8//8 20//8 21//8 9//8
f 9//9 21//9 22//9 10//9
f 10//10 22//10 23//10 11//10
f 11//11 23//11 24//11 12//11
f 1//12 12//12 24//12 13//12
f 13//13 25//13 26//13 14//13
f 14//14 26//14 27//14 15//14
f 15//15 27//15 28//15 16//15
f 16//16 28//16 29//16 17//16
f 17//17 29//17 30//17 18//17
f 18//18 30//18 31//18 19//18
f 19//19 31//19 32//19 20//19
f 20//20 32//20 33//20 21//20
f 21//21 33//21 34//21 22//21
f 22//22 34//22 35//22 23//22
f 23//23 35//23 36//23 24//23
f 24//24 36//24 25//24 13//24
f 25//25 37//25 38//25 26//25
f 26//26 38//26 39//26 27//26
f 27//27 39//27 40//27 28//27
f 28//28 40//28 41//28 29//28
f 29//29 41//29 42//29 30//29
f 30//30 42//30 43//30 31//30
f 31//31 43//31 44//31 32//31
f 32//32 44//32 45//32 33//32
f 33//33 45//33 46//33 34//33
f 34//34 46//34 47//34 35//34
f 35//35 47//35 48//35 36//35
f 36//36 48//36 37//36 25//36
f 37//37 49//37 50//37 38//37
f 38//38 50//38 51//38 39//38
f 39//39 51//39 52//39 40//39
f 40//40 52//40 53//40 41//40
f 41//41 53//41 54//41 42//41
f 42//42 54//42 55//42 43//42
f 43//43 55//43 56//43 44//43
f 44//44 56//44 57//44 45//44
f 45//45 57//45 58//45 46//45
f 46//46 58//46 59//46 47//46
f 47//47 59//47 60//47 48//47
f 48//48 60//48 49//48 37//48
f 49//49 61//49 62//49 50//49
f 50//50 62//50 63//50 51//50
f 51//51 63//51 64//51 52//51
f 52//52 64//52 65//52 53//52
f 53//53 65//53 66//53 54//53
f 54//54 66//54 67//54 55//54
f 55//55 67//55 68//55 56//55
f 56//56 68//56 69//56 57//56
f 57//57 69//57 70//57 58//57
f 58//58 70//58 71//58 59//58
f 59//59 71//59 72//59 60//59
f 60//60 72//60 61//60 49//60
f 61//61 73//61 74//61 62//61
f 62//62 74//62 75//62 63//62
f 63//63 75//63 76//63 64//63
f 64//64 76//64 77//64 65//64
f 65//65 77//65 78//65 66//65
f 66//66 78//66 79//66 67//66
f 67//67 79//67 80//67 68//67
f 68//68 80//68 81//68 69//68
f 69//69 81//69 82//69 70//69
f 70//70 82//70 83//70 71//70
f 71//71 83//71 84//71 72//71
f 72//72 84//72 73//72 61//72
f 73//73 85//73 86//73 74//73
f 74//74 86//74 87//74 75//74
f 75//75 87//75 88//75 76//75
f 76//76 88//76 89//76 77//76
f 77//77 89//77 90//77 78//77
f 78//78 90//78 91//78 79//78
f 79//79 91//79 92//79 80//79
f 80//80 92//80 93//80 81//80
f 81//81 93//81 94//81 82//81
f 82//82 94//82 95//82 83//82
f 83//83 95//83 96//83 84//83
f 84//84 96//84 85//84 73//84
f 85//85 97//85 98//85 86//85
f 86//86 98//86 99//86 87//86
f 87//87 99//87 100//87 88//87
f 88//88 100//88 101//88 89//88
f 89//89 101//89 102//89 90//89
f 90//90 102//90 103//90 91//90
f 91//91 103//91 104//91 92//91
f 92//92 104//92 105//92 93//92
f 93//93 105//93 106//93 94//93
f 94//94 106//94 107//94 95//94
f 95//95 107//95 108//95 96//95
f 96//96 108//96 97//96 85//96
f 97//6 109//6 110//6 98//6
f 98//5 110//5 111//5 99//5
f 99//4 111//4 112//4 100//4
f 100//3 112//3 113//3 101//3
f 101//2 113//2 114//2 102//2
f 102//1 114//1 115//1 103//1
f 103//12 115//12 116//12 104//12
f 104//11 116//11 117//11 105//11
f 105//10 117//10 118//10 106//10
f 106//9 118//9 119//9 107//9
f 107//8 119//8 120//8 108//8
f 108//7 120//7 109//7 97//7
f 109//18 121//18 122//18 110//18
f 110//17 122//17 123//17 111//17
f 111//16 123//16 124//16 112//16
f 112//15 124//15 125//15 113//15
f 113//14 125//14 126//14 114//14
f 114//13 126//13 127//13 115//13
f 115//24 127//24 128//24 116//24
f 116//23 128//23 129//23 117//23
f 117//22 129//22 130//22 118//22
f 118//21 130//21 131//21 119//21
f 119//20 131//20 132//20 120//20
f 120//19 132//19 121//19 109//19
f 121//30 133//30 134//30 122//30
f 122//29 134//29 135//29 123//29
f 123//28 135//28 136//28 124//28
f 124//27 136//27 137//27 125//27
f 125//26 137//26 138//26 126//26
f 126//25 138//25 139//25 127//25
f 127//36 139//36 140//36 128//36
f 128//35 140//35 141//35 129//35
f 129//34 141//34 142//34 130//34
f 130//33 142//33 143//33 131//33
f 131//32 143//32 144//32 132//32
f 132//31 144//31 133//31 121//31
f 133//42 145//42 146//42 134//42
f 134//41 146//41 147//41 135//41
f 135//40 147//40 148//40 136//40
f 136//39 148//39 149//39 137//39
f 137//38 149//38 150//38 138//38
f 138//37 150//37 151//37 139//37
f 139//48 151//48 152//48 140//48
f 140//47 152//47 153//47 141//47
f 141//46 153//46 154//46 142//46
f 142//45 154//45 155//45 143//45
f 143//44 155//44 156//44 144//44
f 144//43 156//43 145//43 133//43
f 145//54 157//54 158//54 146//54
f 146//53 158//53 159//53 147//53
f 147//52 159//52 160//52 148//52
f 148//51 160//51 161//51 149//51
f 149//50 161//50 162//50 150//50
f 150//49 162//49 163//49 151//49
f 151//60 163//60 164//60 152//60
f 152//59 164//59 165//59 153//59
f 153//58 165//58 166//58 154//58
f 154//57 166//57 167//57 155//57
f 155//56 167//56 168//56 156//56
f 156//55 168//55 157//55 145//55
f 157//66 169//66 170//66 158//66
f 158//65 170//65 171//65 159//65
f 159//64 171//64 172//64 160//64
f 160//63 172//63 173//63 161//63
f 161//62 173//62 174//62 162//62
f 162//61 174//61 175//61 163//61
f 163//72 175//72 176//72 164//72
f 164//71 176//71 177//71 165//71
f 165//70 177//70 178//70 166//70
f 166//69 178//69 179//69 167//69
f 167//68 179//68 180//68 168//68
f 168//67 180//67 169//67 157//67
f 169//78 181//78 182//78 170//78
f 170//77 182//77 183//77 171//77
f 171//76 183//76 184//76 172//76
f 172//75 184//75 185//75 173//75
f 173//74 185//74 186//74 174//74
f 174//73 186//73 187//73 175//73
f 175//84 187//84 188//84 176//84
f 176//83 188//83 189//83 177//83
f 177//82 189//82 190//82 178//82
f 178//81 190//81 191//81 179//81
f 179//80 191//80 192//80 180//80
f 180//79 192//79 181//79 169//79
f 181//90 1//90 2//90 182//90
f 182//89 2//89 3//89 183//89
f 183//88 3//88 4//88 184//88
f 184//87 4//87 5//87 185//87
f 185//86 5//86 6//86 186//86
f 186//85 6//85 7//85 187//85
f 187//96 7//96 8//96 188//96
f 188//95 8//95 9//95 189//95
f 189//94 9//94 10//94 190//94
f 190//93 10//93 11//93 191//93
f 191//92 11//92 12//92 192//92
f 192//91 12//91 1//91 181//91
